<svg width="17" height="17" viewBox="0 0 17 17" fill="none" xmlns="http://www.w3.org/2000/svg">
<path d="M10.8642 8.87947V11.6758C10.8642 14.006 9.9321 14.9381 7.60185 14.9381H4.80555C2.47531 14.9381 1.54321 14.006 1.54321 11.6758V8.87947C1.54321 6.54923 2.47531 5.61713 4.80555 5.61713H7.60185C9.9321 5.61713 10.8642 6.54923 10.8642 8.87947Z" stroke="#CCD3E0" stroke-width="1.19841" stroke-linecap="round" stroke-linejoin="round"/>
<path d="M14.8589 4.88478V7.68108C14.8589 10.0113 13.9268 10.9434 11.5966 10.9434H10.8642V8.87949C10.8642 6.54924 9.9321 5.61715 7.60185 5.61715H5.53792V4.88478C5.53792 2.55454 6.47002 1.62244 8.80026 1.62244H11.5966C13.9268 1.62244 14.8589 2.55454 14.8589 4.88478Z" stroke="#CCD3E0" stroke-width="1.19841" stroke-linecap="round" stroke-linejoin="round"/>
</svg>
